<svg xmlns:svg="http://www.w3.org/2000/svg" xmlns="http://www.w3.org/2000/svg" width="29.6" height="8.4" viewBox="0 0 104.8 29.9" version="1.1"><style>.s0{fill:#000;font-family:sans-serif;font-size:10;letter-spacing:0;line-height:0;word-spacing:0;}</style><g transform="translate(-127.13639,-187.53419)"><text xml:space="preserve" x="353.8" y="457.3" style="fill:#000;font-family:sans-serif;font-size:50;letter-spacing:-9.8;line-height:0;word-spacing:0"><tspan x="353.8" y="457.3"/></text><text xml:space="preserve" x="14.6" y="49.4" class="s0"><tspan x="14.6" y="49.4"/></text><text xml:space="preserve" x="375.8" y="325.3" class="s0"><tspan x="375.8" y="325.3"/></text><text xml:space="preserve" x="385.3" y="340.4" class="s0"><tspan x="385.3" y="340.4"/></text><g transform="matrix(0.99449923,0,0,0.99449923,-200.38718,38.109133)"><path d="m357.9 150.3 0 29.8-28.6 0" style="fill:none;stroke-width:0.5;stroke:#78603b"/><text y="169.7" x="368.4" xml:space="preserve" style="-inkscape-font-specification:'Shree Devanagari 714, ';fill:#ffe6d5;font-family:'Shree Devanagari 714';font-size:5.1;letter-spacing:0;line-height:0;word-spacing:0"><tspan y="169.7" x="368.4">fullMarshallStack@gmail.com</tspan></text><g transform="matrix(0.70689712,0,0,0.70689712,289.20614,12.216653)"><text xml:space="preserve" x="57.7" y="206" style="-inkscape-font-specification:'Shree Devanagari 714, ';fill:#ffe6d5;font-family:'Shree Devanagari 714';font-size:10;letter-spacing:2.7;line-height:0;word-spacing:0"><tspan x="57.7" y="206">1.330</tspan></text><text xml:space="preserve" x="59" y="219.3" style="-inkscape-font-specification:'Shree Devanagari 714, ';fill:#ffe6d5;font-family:'Shree Devanagari 714';font-size:10;letter-spacing:5.4;line-height:0;word-spacing:0"><tspan x="59" y="219.3">608.</tspan></text><text xml:space="preserve" x="59" y="233.7" style="-inkscape-font-specification:'Shree Devanagari 714, ';fill:#ffe6d5;font-family:'Shree Devanagari 714';font-size:10;letter-spacing:4;line-height:0;word-spacing:0"><tspan x="59" y="233.7">3065</tspan></text></g><text y="161.9" x="375" xml:space="preserve" style="-inkscape-font-specification:'Shree Devanagari 714, ';fill:#ffe6d5;font-family:'Shree Devanagari 714';font-size:5.2;letter-spacing:2.8;line-height:0;word-spacing:0"><tspan y="161.9" x="375">CONTACT</tspan></text><path d="m415.6 163.1-42.4 0-1.8-4.1-13.6 0" style="fill:none;stroke-width:0.6;stroke:#78603b"/><path d="m434.8 171.2-66 0-3.2 4.1-7.5 0" style="fill:none;stroke-width:0.8;stroke:#78603b"/></g><rect width="122" height="17.8" x="616.6" y="156.5" style="fill:none;stroke-linecap:round;stroke-width:1.8;stroke:#78603b"/></g></svg>