<svg xmlns:svg="http://www.w3.org/2000/svg" xmlns="http://www.w3.org/2000/svg" width="29.6" height="8.4" viewBox="0 0 104.8 29.9" version="1.1"><style>.s0{fill:#000;font-family:sans-serif;font-size:10;letter-spacing:0;line-height:0;word-spacing:0;}.s1{fill:none;stroke-width:0.5;stroke:#78603b;}</style><g transform="translate(-127.08549,-187.76325)"><text xml:space="preserve" x="353.8" y="457.3" style="fill:#000;font-family:sans-serif;font-size:50;letter-spacing:-9.8;line-height:0;word-spacing:0"><tspan x="353.8" y="457.3"/></text><text xml:space="preserve" x="14.6" y="49.4" class="s0"><tspan x="14.6" y="49.4"/></text><text xml:space="preserve" x="375.8" y="325.3" class="s0"><tspan x="375.8" y="325.3"/></text><text xml:space="preserve" x="385.3" y="340.4" class="s0"><tspan x="385.3" y="340.4"/></text><rect width="122" height="17.8" x="616.6" y="156.5" style="fill:none;stroke-linecap:round;stroke-width:1.8;stroke:#78603b"/><g transform="translate(8.067178,-36.302301)"><g transform="translate(-8.1180798,36.531359)"><path d="m155.6 187.5 0 29.7-28.5 0" class="s1"/><g transform="matrix(0.70300864,0,0,0.70300864,87.228104,50.258585)"><text y="206" x="57.7" xml:space="preserve" style="-inkscape-font-specification:'Shree Devanagari 714, ';fill-opacity:0.5;fill:#ffd2b4;font-family:'Shree Devanagari 714';font-size:10;letter-spacing:2.7;line-height:0;word-spacing:0"><tspan y="206" x="57.7">1.330</tspan></text><text y="219.3" x="59" xml:space="preserve" style="-inkscape-font-specification:'Shree Devanagari 714, ';fill-opacity:0.5;fill:#ffd2b4;font-family:'Shree Devanagari 714';font-size:10;letter-spacing:5.4;line-height:0;word-spacing:0"><tspan y="219.3" x="59">608.</tspan></text><text y="233.7" x="59" xml:space="preserve" style="-inkscape-font-specification:'Shree Devanagari 714, ';fill-opacity:0.5;fill:#ffd2b4;font-family:'Shree Devanagari 714';font-size:10;letter-spacing:4;line-height:0;word-spacing:0"><tspan y="233.7" x="59">3065</tspan></text></g><text xml:space="preserve" x="171.7" y="199.7" style="-inkscape-font-specification:'Shree Devanagari 714, ';fill-opacity:0.5;fill:#ffd2b4;font-family:'Shree Devanagari 714';font-size:5.1;letter-spacing:2.7;line-height:0;word-spacing:0"><tspan x="171.7" y="199.7">CONTACT</tspan></text><path d="m212.9 200.3-42.1 0-1.8-4.1-13.5 0M232 208.4l-65.7 0-3.2 4.1-7.5 0M232 208.4l-65.7 0-3.2 4.1-7.5 0M232 208.4l-65.7 0-3.2 4.1-7.5 0" class="s1"/><text xml:space="preserve" x="166.4" y="207.1" style="-inkscape-font-specification:'Shree Devanagari 714, ';fill-opacity:0.5;fill:#ffd2b4;font-family:'Shree Devanagari 714';font-size:5;letter-spacing:0;line-height:0;word-spacing:0"><tspan x="166.4" y="207.1">fullMarshallStack@gmail.com</tspan></text></g></g></g></svg>