<svg xmlns:dc="http://purl.org/dc/elements/1.1/" xmlns:cc="http://creativecommons.org/ns#" xmlns:rdf="http://www.w3.org/1999/02/22-rdf-syntax-ns#" xmlns:svg="http://www.w3.org/2000/svg" xmlns="http://www.w3.org/2000/svg" xmlns:sodipodi="http://sodipodi.sourceforge.net/DTD/sodipodi-0.dtd" width="146.30594mm" height="145.30428mm" viewBox="0 0 518.40687 514.85766" id="svg9849" version="1.1" sodipodi:docname="GithubIcon.svg"><defs id="defs9851"/><sodipodi:namedview id="base" pagecolor="#ffffff" bordercolor="#666666" borderopacity="1.0" showgrid="false" fit-margin-top="0" fit-margin-left="0" fit-margin-right="0" fit-margin-bottom="0"/><metadata id="metadata9854"><rdf:RDF><cc:Work rdf:about=""><dc:format>image/svg+xml</dc:format><dc:type rdf:resource="http://purl.org/dc/dcmitype/StillImage"/><dc:title/></cc:Work></rdf:RDF></metadata><g id="layer1" transform="translate(-30.575917,-371.20351)"><g id="g4156"><circle r="250.91608" cy="628.70215" cx="289.18216" id="path11945" style="fill-opacity:1;fill-rule:evenodd;fill:#000;opacity:1"/><g transform="matrix(4.1845248,0,0,4.1845248,1062.5407,-1041.023)" id="g12055" style="fill-opacity:1;fill:#78603b"><path d="m-184.6 338.2c-33.4 0-60.4 27-60.4 60.4 0 26.7 17.3 49.3 41.3 57.3 3 0.6 4.1-1.3 4.1-2.9 0-1.4-0.1-6.2-0.1-11.2-16.8 3.6-20.3-7.2-20.3-7.2-2.7-7-6.7-8.8-6.7-8.8-5.5-3.7 0.4-3.7 0.4-3.7 6.1 0.4 9.3 6.2 9.3 6.2 5.4 9.2 14.1 6.6 17.6 5 0.5-3.9 2.1-6.6 3.8-8.1-13.4-1.4-27.5-6.6-27.5-29.8 0-6.6 2.4-12 6.2-16.2-0.6-1.5-2.7-7.7 0.6-16 0 0 5.1-1.6 16.6 6.2 4.8-1.3 10-2 15.1-2 5.1 0 10.3 0.7 15.1 2 11.5-7.8 16.6-6.2 16.6-6.2 3.3 8.3 1.2 14.5 0.6 16 3.9 4.2 6.2 9.6 6.2 16.2 0 23.2-14.1 28.3-27.6 29.8 2.2 1.9 4.1 5.5 4.1 11.2 0 8.1-0.1 14.6-0.1 16.6 0 1.6 1.1 3.5 4.1 2.9 24-8 41.3-30.6 41.3-57.3 0.1-33.4-27-60.4-60.3-60.4z" id="path12057" style="fill-opacity:1;fill:#78603b"/><path d="m-222.1 424.9c-0.1 0.3-0.6 0.4-1 0.2-0.4-0.2-0.7-0.6-0.5-0.9 0.1-0.3 0.6-0.4 1-0.2 0.4 0.2 0.6 0.6 0.5 0.9l0 0z" id="path12059" style="fill-opacity:1;fill:#78603b"/><path d="m-219.7 427.6c-0.3 0.3-0.9 0.1-1.2-0.3-0.4-0.4-0.5-1-0.2-1.3 0.3-0.3 0.8-0.1 1.2 0.3 0.4 0.5 0.5 1.1 0.2 1.3l0 0z" id="path12061" style="fill-opacity:1;fill:#78603b"/><path d="m-217.3 431.1c-0.4 0.3-1 0-1.3-0.5-0.4-0.5-0.4-1.2 0-1.4 0.4-0.3 1 0 1.3 0.5 0.4 0.5 0.4 1.1 0 1.4l0 0z" id="path12063" style="fill-opacity:1;fill:#78603b"/><path d="m-214 434.5c-0.3 0.4-1 0.3-1.6-0.2-0.5-0.5-0.7-1.2-0.3-1.5 0.3-0.4 1-0.3 1.6 0.2 0.5 0.4 0.6 1.1 0.3 1.5l0 0z" id="path12065" style="fill-opacity:1;fill:#78603b"/><path d="m-209.5 436.4c-0.1 0.5-0.8 0.7-1.5 0.5-0.7-0.2-1.1-0.8-1-1.2 0.1-0.5 0.8-0.7 1.5-0.5 0.7 0.2 1.1 0.7 1 1.2l0 0z" id="path12067" style="fill-opacity:1;fill:#78603b"/><path d="m-204.6 436.8c0 0.5-0.6 0.9-1.3 0.9-0.7 0-1.3-0.4-1.3-0.9 0-0.5 0.6-0.9 1.3-0.9 0.7 0 1.3 0.4 1.3 0.9l0 0z" id="path12069" style="fill-opacity:1;fill:#78603b"/><path d="m-200 436c0.1 0.5-0.4 1-1.1 1.1-0.7 0.1-1.3-0.2-1.4-0.7-0.1-0.5 0.4-1 1.1-1.1 0.7-0.1 1.3 0.2 1.4 0.7l0 0z" id="path12071" style="fill-opacity:1;fill:#78603b"/></g><ellipse ry="253.43033" rx="255.20494" cy="628.63232" cx="289.77936" id="path4154" style="fill:none;opacity:1;stroke-dasharray:none;stroke-linecap:round;stroke-linejoin:miter;stroke-miterlimit:4;stroke-opacity:1;stroke-width:7.99700022;stroke:#78603b"/></g></g></svg>