<svg xmlns:dc="http://purl.org/dc/elements/1.1/" xmlns:cc="http://creativecommons.org/ns#" xmlns:rdf="http://www.w3.org/1999/02/22-rdf-syntax-ns#" xmlns:svg="http://www.w3.org/2000/svg" xmlns="http://www.w3.org/2000/svg" xmlns:sodipodi="http://sodipodi.sourceforge.net/DTD/sodipodi-0.dtd" width="142.69272mm" height="142.69273mm" viewBox="0 0 505.60412 505.60417" id="svg9849" version="1.1" sodipodi:docname="linkedIn.svg"><defs id="defs9851"/><sodipodi:namedview id="base" pagecolor="#ffffff" bordercolor="#666666" borderopacity="1.0" showgrid="false" fit-margin-top="0" fit-margin-left="0" fit-margin-right="0" fit-margin-bottom="0"/><metadata id="metadata9854"><rdf:RDF><cc:Work rdf:about=""><dc:format>image/svg+xml</dc:format><dc:type rdf:resource="http://purl.org/dc/dcmitype/StillImage"/><dc:title/></cc:Work></rdf:RDF></metadata><g id="layer1" transform="translate(-35.833435,-374.26013)"><circle id="path11945" cx="289.18216" cy="628.70215" r="250.91608" style="fill-opacity:1;fill-rule:evenodd;fill:#000;opacity:1"/><g id="g12211" transform="matrix(0.65509862,0,0,0.65509862,26.757319,366.00228)" style="fill-opacity:1;fill:#78603b"><path id="path12191" d="M400 16C187.9 16 16 187.9 16 400 16 612.1 187.9 784 400 784 612.1 784 784 612.1 784 400 784 187.9 612.1 16 400 16Zm196 514.2c0 36.2-29.6 65.8-65.8 65.8l-260.4 0C233.6 596 204 566.4 204 530.2l0-260.4c0-36.2 29.6-65.8 65.8-65.8l260.3 0c36.2 0 65.8 29.6 65.8 65.8l0 260.4z" style="fill-opacity:1;fill:#78603b"/><rect id="rect12193" height="171.5" width="49" y="351" x="302" style="fill-opacity:1;fill:#78603b"/><circle id="circle12195" r="24.5" cy="302" cx="326.5" style="fill-opacity:1;fill:#78603b"/><path id="path12197" d="m467.4 351c-17.3 0-32.8 16.5-42.9 30.4l0-30.4-49 0 0 171.5 49 0 0-98c0-13.5 11-24.5 24.5-24.5 13.5 0 24.5 11 24.5 24.5l0 98 49 0 0-110.3c0-33.8-24.7-61.2-55.1-61.2z" style="fill-opacity:1;fill:#78603b"/><rect id="rect12199" height="171.5" width="49" y="351" x="302" style="fill-opacity:1;fill:#78603b"/><circle id="circle12201" r="24.5" cy="302" cx="326.5" style="fill-opacity:1;fill:#78603b"/><path id="path12203" d="m467.4 351c-17.3 0-32.8 16.5-42.9 30.4l0-30.4-49 0 0 171.5 49 0 0-98c0-13.5 11-24.5 24.5-24.5 13.5 0 24.5 11 24.5 24.5l0 98 49 0 0-110.3c0-33.8-24.7-61.2-55.1-61.2z" style="fill-opacity:1;fill:#78603b"/></g></g></svg>