<svg xmlns:dc="http://purl.org/dc/elements/1.1/" xmlns:cc="http://creativecommons.org/ns#" xmlns:rdf="http://www.w3.org/1999/02/22-rdf-syntax-ns#" xmlns:svg="http://www.w3.org/2000/svg" xmlns="http://www.w3.org/2000/svg" xmlns:sodipodi="http://sodipodi.sourceforge.net/DTD/sodipodi-0.dtd" width="113.02739mm" height="63.221607mm" viewBox="0 0 400.49075 224.01357" id="svg19843" version="1.1" sodipodi:docname="portTMlogo.svg"><defs id="defs19845"/><sodipodi:namedview id="base" pagecolor="#ffffff" bordercolor="#666666" borderopacity="1.0" showgrid="false" fit-margin-top="0" fit-margin-left="0" fit-margin-right="0" fit-margin-bottom="0"/><metadata id="metadata19848"><rdf:RDF><cc:Work rdf:about=""><dc:format>image/svg+xml</dc:format><dc:type rdf:resource="http://purl.org/dc/dcmitype/StillImage"/><dc:title/></cc:Work></rdf:RDF></metadata><g id="layer1" transform="translate(-14.15537,-316.07184)"><g id="g21268"><g transform="translate(-403.52865,401.93386)" id="g21264" style="fill-opacity:1;fill:#78603b;stroke-opacity:1;stroke:#78603b"><path d="m795.40583 60.175853c-0.062-3.344274-0.12387-11.457236-0.12387-22.171303l0-101.381067c0.062-16.102071 20.31337-17.031022 20.31337-17.031022l1.85793-4.954485-22.10936 0-38.64495 0-42.23696 114.076922-56.54301-114.076922-54.37544 0 1.85793 4.954485c0 0 20.25145 0.928951 20.25145 17.031022l0 101.381067c0 10.714067-0.062 18.827029-0.12386 22.171303-0.30966 15.792409-19.94179 17.03103-19.94179 17.03103l-1.85793 4.954484 21.92358 0 8.7942 0 0.24772 0 21.73779 0-1.85794-4.954484c0 0-18.33157-1.114759-19.87985-15.420823l0-115.872927 67.44288 136.248234 53.44647-144.299263 0.12386-0.309657 0 0.309657 0 100.142446c0 10.714067-0.12386 18.827029-0.12386 22.171303 0 10.899859-16.10206 16.349788-20.37531 18.20772-4.27323 1.857928-121.94216 51.836257-187.7129 51.836257-71.71612 0-106.14976-39.883567-106.14976-82.182455 0-42.2988836 28.85986-90.667008 83.97845-90.667008 55.1186 0 88.19271 50.7310464 62.92192 86.269905 0 0-2.47725-4.706757-8.05103-4.706757-5.5738 0-8.42263 5.759585-8.42263 10.28055 0 4.520964 3.90165 7.431721 7.61751 7.431721 3.71587 0 6.3789-2.105655 11.82882-8.856135 29.47918-36.539299-4.2113-95.993072-65.89459-95.993072-70.91101 0-107.14065 56.2333609-107.14065 96.240796 0 40.007433 26.32067 89.614175 129.12617 89.614175 57.9055 0 190.80945-52.145915 194.33952-53.384529 7.43173-2.539171 27.88702-7.404252 40.14599-7.342321 11.8693-0.265796 35.47179 5.174737 35.47179 5.174737l-1.3384-5.86369c-0.22124-1.663874-20.2136-0.267485-20.52326-16.059894z" id="path3" sodipodi:nodetypes="cscccccccccssccccccccccccccsssssscssscsssccccc" style="fill-opacity:1;fill:#78603b;stroke-opacity:1;stroke:#78603b"/><path d="m609.67471-57.307277-9.7851-25.825234c0 0-0.55737-2.229513-3.77779-2.229513-0.12386 0-53.75611 0-53.75611 0l-38.08758 0c0 0-53.69419 0-53.75612 0-3.03461 0-3.83972 2.229513-3.83972 2.229513l-9.84703 25.825234-0.1858 2.477233 6.50276-4.644826c6.9982-16.287847 18.39351-18.455431 22.10938-18.703166l39.01653 0c0 0 0.30965 122.623412 0 138.41582-0.30966 15.792408-19.94179 17.031029-19.94179 17.031029l-1.85793 4.954483 82.0586 0-1.85793-4.954483c0 0-20.25145-0.928964-20.25145-17.031029 0-16.102064 0-138.41582 0-138.41582l38.95461 0c3.71586 0.247735 15.11117 2.477248 22.10937 18.765098l6.50277 4.644825-0.30967-2.539164z" id="path5" style="fill-opacity:1;fill:#78603b;stroke-opacity:1;stroke:#78603b"/></g></g></g></svg>