<svg xmlns:dc="http://purl.org/dc/elements/1.1/" xmlns:cc="http://creativecommons.org/ns#" xmlns:rdf="http://www.w3.org/1999/02/22-rdf-syntax-ns#" xmlns:svg="http://www.w3.org/2000/svg" xmlns="http://www.w3.org/2000/svg" xmlns:sodipodi="http://sodipodi.sourceforge.net/DTD/sodipodi-0.dtd" width="142.69272mm" height="142.69273mm" viewBox="0 0 505.60412 505.60417" id="svg9849" version="1.1" sodipodi:docname="twitterIcon.svg"><defs id="defs9851"/><sodipodi:namedview id="base" pagecolor="#ffffff" bordercolor="#666666" borderopacity="1.0" showgrid="false" fit-margin-top="0" fit-margin-left="0" fit-margin-right="0" fit-margin-bottom="0"/><metadata id="metadata9854"><rdf:RDF><cc:Work rdf:about=""><dc:format>image/svg+xml</dc:format><dc:type rdf:resource="http://purl.org/dc/dcmitype/StillImage"/><dc:title/></cc:Work></rdf:RDF></metadata><g id="layer1" transform="translate(-35.833435,-374.26013)"><circle id="path11945" cx="281.52893" cy="654.94177" r="195.15695" style="fill-opacity:1;fill-rule:evenodd;fill:#000;opacity:1"/><path id="path10461" d="m288.63548 374.26013c-139.63363 0-252.80204 113.16841-252.80204 252.80205 0 139.63363 113.16841 252.80209 252.80204 252.80209 139.63364 0 252.80205-113.16846 252.80205-252.80209 0-139.63364-113.16841-252.80205-252.80205-252.80205zm102.635 199.87162c0.13167 2.30419 0.13167 4.60838 0.13167 6.91256 0 70.3764-53.2596 151.54956-150.62789 151.54956-29.88858 0-57.7363-8.82174-81.17316-23.8977 4.14753 0.46084 8.3609 0.72417 12.64011 0.72417 24.81936 0 47.66372-8.49256 65.76803-22.7785C214.83572 686.181 195.28306 670.8417 188.568 649.6432c3.22587 0.59251 6.51756 0.98751 9.94091 0.98751 4.80588 0 9.48008-0.65835 13.95679-1.84335-24.22687-4.87171-42.46285-26.39938-42.46285-52.20626 0-0.1975 0-0.46084 0-0.65834 7.11006 4.01587 15.27346 6.38589 23.96353 6.64922-14.22011-9.54591-23.56853-25.87271-23.56853-44.30619 0-9.74341 2.63336-18.89432 7.1759-26.79438 26.13605 32.19276 65.10969 53.39126 109.15255 55.62961-0.92168-3.88419-1.38252-7.96589-1.38252-12.11342 0-29.42774 23.7002-53.25961 52.93043-53.25961 15.20763 0 28.9669 6.45172 38.64449 16.78764 12.0476-2.37003 23.37101-6.84673 33.64111-12.90344-3.95004 12.4426-12.37678 22.84436-23.3052 29.49358 10.73092-1.31668 20.93517-4.14754 30.41525-8.36091-7.11005 10.46759-16.06347 19.88183-26.39938 27.38689z" style="fill-opacity:1;fill:#78603b"/></g></svg>